<?xml version="1.0" encoding="UTF-8"?>
<svg xmlns:dc="http://purl.org/dc/elements/1.1/" xmlns:cc="http://creativecommons.org/ns#" xmlns:rdf="http://www.w3.org/1999/02/22-rdf-syntax-ns#" xmlns:svg="http://www.w3.org/2000/svg" xmlns="http://www.w3.org/2000/svg" xmlns:xlink="http://www.w3.org/1999/xlink" height="49px" width="1184.3px" id="bookandpay-logo" xml:space="preserve" enable-background="new 0 0 1417.3 374.9" viewBox="0 0 1184.3 262.60001" y="0px" x="0px" version="1.1">
<g transform="translate(-116.4,-71.6)" id="Logotype">
	<g id="logo" aria-label="Book&amp;Pay" style="fill:#000000">
		<defs id="defs6">
			<rect height="374.89999" width="1417.3" y="0" x="0" id="SVGID_1_"></rect>
		</defs>
		<clipPath id="SVGID_2_">
			<use height="100%" width="100%" y="0" x="0" style="overflow:visible" id="use8" overflow="visible" xlink:href="#SVGID_1_"></use>
		</clipPath>
		<path style="fill:#315ede" id="path11" d="m 933.6,283.2 -11.1,-12.3 -11.8,10.6 -7.6,-8.5 11.8,-10.6 -11.1,-12.3 -20.4,18.4 3.5,23.1 -43.7,-48.5 0.4,-0.4 22.8,-20.5 c 23.9,-21.5 35.5,-57.1 11.6,-83.7 -10.1,-11.2 -23.7,-17.4 -38.3,-17.4 -3.9,0 -8,0.5 -11.9,1.3 -1.3,5.8 -3.4,11.5 -6.2,16.8 12.3,1 25.3,7.9 34.9,18.6 8.2,9.1 12.9,19.9 13.5,30.6 0.6,11.6 -3.9,21.9 -12.8,30 l -20,18 -0.4,-0.4 -110.5,-122.8 14.5,-13.1 c 6.4,-5.8 13.3,-8.7 20.3,-8.7 8,0 15.7,3.9 22.3,11.1 6.7,7.4 10.4,14.8 10.9,21.9 0.6,7.9 -2.8,15.2 -10,21.7 l -6.3,5.6 6.1,6.7 11.1,-10 c 11.1,-10 15,-20.9 16.4,-25 l 0.1,-0.3 c 8,-24.7 -6.8,-39.7 -6.9,-39.8 -6.8,-7.5 -16.3,-11.7 -26.9,-11.7 -11.7,0 -23.7,5 -33.9,14.1 l -29.1,26.2 c -8,7.2 -8.7,19.6 -1.4,27.6 l 34.9,38.8 -0.4,0.4 -29.7,26.7 c -12.5,11.2 -19.9,25.7 -21,40.7 -1.1,14.6 3.9,28.9 14.1,40.2 10.3,11.4 23.7,17.5 38.8,17.5 16.6,0 33.8,-7.2 48.4,-20.3 l 24.6,-22.1 0.4,0.4 65.2,72.4 20.2,-18.2 -18.2,-20.2 22.7,5.9 z m -117,-28.2 -21.9,19.7 c -7.5,6.7 -16.4,10.3 -25.9,10.3 -12.9,0 -26.1,-6.5 -36.3,-17.7 -15.4,-17.1 -20.9,-43.6 -1.5,-61 l 23.4,-21.1 0.4,0.4 62.2,69.1 z" clip-path="url(#SVGID_2_)"></path>
		<g id="g33" clip-path="url(#SVGID_2_)">
			<g id="g19">
				<path id="path13" d="m 1050.8,144.4 c -2.5,-5.6 -6,-10.5 -10.3,-14.7 -4.3,-4.2 -9.5,-7.5 -15.4,-10 -5.9,-2.4 -12.3,-3.7 -19,-3.7 h -62.7 v 142.7 h 24.4 v -50.5 h 38.3 c 6.7,0 13.1,-1.2 19,-3.7 5.9,-2.4 11.1,-5.8 15.4,-10 4.3,-4.2 7.8,-9.1 10.3,-14.7 2.5,-5.5 3.8,-11.5 3.8,-17.7 0,-6.2 -1.3,-12.2 -3.8,-17.7 z m -27.5,34.6 c -4.6,4.5 -10.4,6.8 -17.2,6.8 h -38.3 v -47.3 h 38.3 c 6.8,0 12.6,2.3 17.2,6.8 4.6,4.5 6.9,10.2 6.9,16.9 0.1,6.6 -2.3,12.2 -6.9,16.8 z"></path>
				<path id="path15" d="m 1103,116 -58.3,142.7 h 26.3 l 12.5,-33.2 h 64.7 l 12.5,33.2 H 1187 L 1128.8,116 Z m -11,87.1 23.9,-63.7 23.9,63.7 z"></path>
				<path id="path17" d="m 1241.7,183.6 c -11.7,0 -20.6,-3.5 -26.3,-10.4 -5.6,-6.8 -8.5,-15.6 -8.5,-26.2 v -31 h -24.4 v 30.9 c 0,7.3 1,14.2 3,20.6 2,6.4 4.9,12.2 8.8,17.2 3.8,5 8.6,9.3 14.2,12.8 5.6,3.4 12.1,5.9 19.3,7.3 l 1.8,0.4 v 53.5 h 24.4 v -53.5 l 1.8,-0.4 c 7.2,-1.4 13.7,-3.9 19.2,-7.4 5.5,-3.5 10.2,-7.9 14.1,-12.9 3.8,-5.1 6.7,-10.8 8.7,-17.1 1.9,-6.3 2.9,-13.2 2.9,-20.5 V 116 h -24.4 v 30.9 c 0,10.6 -2.8,19.4 -8.5,26.2 -5.6,7 -14.4,10.5 -26.1,10.5 z"></path>
			</g>
			<g id="g31">
				<g id="g23">
					<path id="path21" d="m 627.4,177.2 c 17.3,-17.5 30.8,-38.3 39.9,-61.2 h -26.2 c -13.5,28.9 -35.6,53.5 -63.9,69.9 V 116 h -24.4 v 142.7 h 24.4 v -45.5 c 11.4,-5.5 22,-12.2 31.8,-19.7 l 37.5,65.2 h 27.8 z"></path>
				</g>
				<path id="path25" d="m 214,187.6 -2.9,-1.7 2.7,-2 c 4.4,-3.3 7.8,-7.3 10.2,-12 2.4,-4.6 3.6,-9.8 3.6,-15.3 0,-5.3 -1.1,-10.4 -3.4,-15.3 -2.3,-4.9 -5.4,-9.3 -9.4,-13 -4,-3.7 -8.6,-6.7 -13.9,-8.9 -5.2,-2.2 -11,-3.3 -17,-3.3 h -67.5 v 142.7 h 72.3 c 6.1,0 11.8,-1.1 17,-3.3 5.3,-2.2 9.9,-5.2 13.9,-8.9 3.9,-3.7 7.1,-8.1 9.4,-12.9 2.3,-4.8 3.4,-10 3.4,-15.4 0,-6.4 -1.7,-12.3 -4.9,-17.6 -3.4,-5.4 -7.9,-9.8 -13.5,-13.1 z m -73.3,-49.2 h 43.1 c 5.4,0 10,1.8 13.7,5.4 3.7,3.6 5.6,8.2 5.6,13.4 0,5.3 -1.9,9.8 -5.6,13.4 -3.7,3.6 -8.3,5.5 -13.7,5.5 h -43.1 z m 61.7,92.4 c -3.7,3.6 -8.3,5.5 -13.7,5.5 h -48 v -37.7 h 48 c 5.4,0 10,1.8 13.7,5.4 3.7,3.6 5.6,8.1 5.6,13.4 0,5.2 -1.9,9.8 -5.6,13.4 z"></path>
				<path id="path27" d="m 364.3,135.9 c -6,-6.5 -13.5,-11.7 -22.3,-15.5 -8.8,-3.8 -19,-5.7 -30.1,-5.7 -11.1,0 -21.3,1.9 -30.1,5.7 -8.8,3.8 -16.3,9 -22.3,15.5 -6,6.5 -10.7,14.2 -13.8,23 -3.2,8.8 -4.8,18.4 -4.8,28.3 0,10.1 1.6,19.7 4.8,28.5 3.2,8.7 7.8,16.4 13.8,22.9 6,6.5 13.5,11.7 22.3,15.5 8.8,3.8 19,5.7 30.1,5.7 11.1,0 21.3,-1.9 30.1,-5.7 8.8,-3.8 16.3,-9 22.3,-15.5 6,-6.5 10.7,-14.2 13.8,-22.9 3.2,-8.8 4.8,-18.4 4.8,-28.5 0,-9.9 -1.6,-19.5 -4.8,-28.3 -3.2,-8.7 -7.8,-16.5 -13.8,-23 z m -8.4,70.7 c -1.8,6.1 -4.6,11.5 -8.4,16.1 -3.8,4.6 -8.7,8.2 -14.7,10.8 -5.9,2.6 -13,3.9 -21.1,3.9 -8.1,0 -15.3,-1.3 -21.1,-3.9 -5.9,-2.6 -10.8,-6.3 -14.6,-10.8 -3.8,-4.6 -6.6,-10 -8.4,-16.1 -1.7,-6 -2.6,-12.5 -2.6,-19.3 0,-6.8 0.9,-13.2 2.6,-19.3 1.8,-6.1 4.6,-11.5 8.4,-16.1 3.8,-4.6 8.7,-8.2 14.7,-10.8 5.9,-2.6 13,-3.9 21.1,-3.9 8.1,0 15.2,1.3 21.1,3.9 5.9,2.6 10.8,6.3 14.7,10.8 3.8,4.6 6.6,10 8.4,16.1 1.7,6 2.6,12.5 2.6,19.3 -0.1,6.8 -0.9,13.3 -2.7,19.3 z"></path>
				<path id="path29" d="m 518.1,135.9 c -6,-6.5 -13.5,-11.7 -22.3,-15.5 -8.8,-3.8 -19,-5.7 -30.1,-5.7 -11.2,0 -21.3,1.9 -30.1,5.7 -8.8,3.8 -16.3,9 -22.3,15.5 -6,6.5 -10.7,14.2 -13.8,23 -3.2,8.8 -4.8,18.4 -4.8,28.3 0,10.1 1.6,19.7 4.8,28.5 3.2,8.7 7.8,16.4 13.8,22.9 6,6.5 13.5,11.7 22.3,15.5 8.8,3.8 19,5.7 30.1,5.7 11.2,0 21.3,-1.9 30.1,-5.7 8.8,-3.8 16.3,-9 22.3,-15.5 6,-6.5 10.7,-14.2 13.8,-22.9 3.2,-8.8 4.8,-18.4 4.8,-28.5 0,-9.9 -1.6,-19.5 -4.8,-28.3 -3.2,-8.7 -7.8,-16.5 -13.8,-23 z m -8.4,70.7 c -1.8,6.1 -4.6,11.5 -8.4,16.1 -3.8,4.6 -8.7,8.2 -14.7,10.8 -5.9,2.6 -13,3.9 -21.1,3.9 -8.1,0 -15.3,-1.3 -21.1,-3.9 -5.9,-2.6 -10.8,-6.3 -14.6,-10.8 -3.8,-4.6 -6.6,-10 -8.4,-16.1 -1.7,-6 -2.6,-12.5 -2.6,-19.3 0,-6.8 0.9,-13.2 2.6,-19.3 1.8,-6.1 4.6,-11.5 8.4,-16.1 3.8,-4.6 8.7,-8.2 14.7,-10.8 5.9,-2.6 13,-3.9 21.1,-3.9 8.1,0 15.2,1.3 21.1,3.9 5.9,2.6 10.8,6.3 14.7,10.8 3.8,4.6 6.6,10 8.4,16.1 1.7,6 2.6,12.5 2.6,19.3 -0.1,6.8 -0.9,13.3 -2.7,19.3 z"></path>
			</g>
		</g>
	</g>
</g>
</svg>